<?xml version="1.0" encoding="UTF-8"?>
<svg xmlns="http://www.w3.org/2000/svg" xmlns:xlink="http://www.w3.org/1999/xlink" viewBox="0 0 96 96" width="96px" height="96px">
<g id="surface41351018">
<path style=" stroke:none;fill-rule:nonzero;fill:rgb(83.529413%,0%,0%);fill-opacity:1;" d="M 24.335938 74.257812 C 24.242188 74.214844 15.171875 69.714844 15.171875 58.453125 C 15.171875 49.984375 19.0625 45.570312 22.121094 43.175781 L 21.769531 43.375 L 21.875 41.96875 C 22.519531 33.644531 19.5625 23.964844 16.507812 20.480469 L 14.304688 17.972656 L 17.367188 19.296875 C 20.683594 20.734375 22.738281 24.136719 23.765625 26.316406 C 24.253906 15.835938 29.804688 9.148438 39.863281 7.003906 L 43.398438 6.25 L 40.453125 8.347656 C 37.027344 10.789062 34.710938 13.203125 33.789062 15.265625 C 33.835938 15.230469 33.878906 15.195312 33.925781 15.15625 C 35.988281 13.523438 40.277344 10.121094 48.195312 10.121094 C 58.761719 10.121094 62.816406 18.25 63.523438 19.878906 L 64.367188 21.828125 L 62.484375 20.84375 C 59.402344 19.222656 56.871094 18.683594 55.089844 18.550781 C 58.589844 20.882812 65.007812 26.21875 65.007812 34.023438 L 65.007812 38.554688 L 63.546875 34.265625 C 62.613281 31.519531 60.535156 29.507812 58.855469 28.25 C 59.972656 30.308594 61.386719 33.253906 61.972656 35.914062 C 62.367188 37.710938 61.960938 39.550781 61.945312 39.628906 L 61.441406 41.855469 L 60.523438 39.765625 C 60.480469 39.664062 55.980469 29.628906 46.121094 27.785156 C 45.277344 27.628906 44.519531 27.546875 43.863281 27.546875 C 43.59375 27.546875 43.351562 27.5625 43.144531 27.585938 C 46.84375 28.144531 48.824219 29.089844 48.921875 29.132812 L 49.914062 29.609375 L 49.105469 30.359375 C 48.308594 31.097656 46.328125 33.382812 46.734375 35.105469 C 46.824219 35.3125 47.589844 36.207031 48.261719 36.992188 C 50.785156 39.941406 55.476562 45.433594 56.386719 50.996094 C 56.84375 53.789062 56.84375 56.605469 56.847656 58.660156 C 56.847656 59.875 56.851562 60.925781 56.945312 61.535156 C 57.039062 62.144531 57.320312 63.992188 43.773438 66.675781 L 24.636719 74.398438 Z M 24.335938 74.257812 "/>
<path style=" stroke:none;fill-rule:nonzero;fill:rgb(12.941177%,12.941177%,12.941177%);fill-opacity:1;" d="M 40.019531 7.734375 C 37.28125 9.6875 33.386719 12.957031 32.699219 16.1875 C 32.636719 16.464844 32.699219 16.652344 32.960938 16.652344 C 34.105469 16.652344 37.980469 10.875 48.195312 10.875 C 57.023438 10.875 61.421875 16.914062 62.835938 20.179688 C 58.972656 18.152344 55.921875 17.773438 54.179688 17.773438 C 53.128906 17.773438 52.550781 17.910156 52.550781 17.910156 C 52.550781 17.910156 64.257812 23.863281 64.257812 34.027344 C 62.433594 28.675781 56.679688 26.027344 56.679688 26.027344 C 56.679688 26.027344 60.238281 31.550781 61.234375 36.078125 C 61.601562 37.734375 61.207031 39.464844 61.207031 39.464844 C 61.207031 39.464844 56.644531 28.988281 46.257812 27.050781 C 45.304688 26.871094 44.511719 26.800781 43.859375 26.800781 C 41.132812 26.800781 40.863281 28.066406 41.3125 28.113281 C 46.058594 28.589844 48.59375 29.808594 48.59375 29.808594 C 48.59375 29.808594 45.402344 32.746094 46.003906 35.28125 C 46.277344 36.441406 54.441406 43.75 55.644531 51.121094 C 56.363281 55.53125 55.929688 59.902344 56.199219 61.652344 C 56.46875 63.402344 43.625 65.945312 43.625 65.945312 L 24.660156 73.585938 C 24.660156 73.585938 15.921875 69.378906 15.921875 58.453125 C 15.921875 45.984375 24.753906 42.605469 25.898438 41.460938 C 26.421875 40.9375 26.441406 40.632812 26.007812 40.632812 C 25.492188 40.632812 24.339844 41.054688 22.625 42.027344 C 23.25 33.910156 20.4375 23.824219 17.070312 19.984375 C 21.085938 21.722656 23.308594 26.816406 23.847656 28.5 C 24.53125 28.386719 24.429688 27.859375 24.488281 27.203125 C 24.601562 21.820312 26.0625 10.710938 40.019531 7.734375 M 46.78125 4.761719 L 39.707031 6.269531 C 30.113281 8.3125 24.46875 14.34375 23.238281 23.789062 C 22.007812 21.824219 20.179688 19.695312 17.664062 18.609375 L 11.542969 15.960938 L 15.941406 20.972656 C 18.890625 24.339844 21.738281 34.007812 21.128906 41.910156 L 21.035156 43.109375 C 18.023438 45.691406 14.421875 50.304688 14.421875 58.453125 C 14.421875 70.1875 23.621094 74.746094 24.011719 74.933594 L 24.609375 75.222656 L 25.222656 74.972656 L 44.054688 67.386719 C 58.171875 64.578125 57.863281 62.605469 57.683594 61.421875 C 57.597656 60.871094 57.597656 59.847656 57.59375 58.660156 C 57.59375 56.582031 57.589844 53.730469 57.125 50.878906 C 56.183594 45.105469 51.398438 39.511719 48.828125 36.503906 C 48.269531 35.851562 47.644531 35.121094 47.441406 34.8125 C 47.269531 33.546875 48.839844 31.621094 49.609375 30.910156 L 50.5 30.09375 C 56.835938 33.394531 59.800781 39.984375 59.835938 40.066406 L 61.664062 44.230469 L 62.671875 39.796875 C 62.71875 39.585938 63.125 37.679688 62.703125 35.753906 C 62.417969 34.460938 61.945312 33.105469 61.402344 31.8125 C 61.988281 32.609375 62.492188 33.507812 62.835938 34.511719 L 65.753906 43.089844 L 65.753906 34.027344 C 65.753906 27.59375 61.613281 22.789062 58.089844 19.863281 C 59.285156 20.203125 60.640625 20.722656 62.132812 21.507812 L 65.898438 23.484375 L 64.207031 19.585938 C 63.46875 17.878906 59.226562 9.375 48.191406 9.375 C 43.238281 9.375 39.664062 10.660156 37.140625 12.050781 C 38.164062 11.042969 39.425781 10 40.886719 8.957031 Z M 46.78125 4.761719 "/>
<path style=" stroke:none;fill-rule:nonzero;fill:rgb(100%,75.686276%,2.745098%);fill-opacity:1;" d="M 57.125 53.257812 L 57.476562 53.148438 C 57.515625 53.136719 57.859375 53.03125 58.3125 53.03125 C 58.878906 53.03125 59.378906 53.195312 59.761719 53.507812 C 60.71875 54.292969 60.351562 55.914062 60.304688 56.097656 L 60.226562 56.410156 L 57.121094 56.988281 Z M 57.125 53.257812 "/>
<path style=" stroke:none;fill-rule:nonzero;fill:rgb(12.941177%,12.941177%,12.941177%);fill-opacity:1;" d="M 58.3125 53.53125 C 58.664062 53.53125 59.09375 53.609375 59.445312 53.894531 C 60.1875 54.503906 59.820312 55.980469 59.820312 55.980469 L 57.625 56.390625 L 57.625 53.625 C 57.625 53.625 57.925781 53.53125 58.3125 53.53125 M 58.3125 52.53125 C 57.796875 52.53125 57.398438 52.648438 57.324219 52.671875 L 56.625 52.890625 L 56.625 57.59375 L 57.804688 57.371094 L 60.003906 56.964844 L 60.636719 56.847656 L 60.789062 56.21875 C 60.84375 56.007812 61.273438 54.097656 60.078125 53.121094 C 59.605469 52.734375 58.996094 52.53125 58.3125 52.53125 Z M 58.3125 52.53125 "/>
<path style=" stroke:none;fill-rule:nonzero;fill:rgb(100%,100%,100%);fill-opacity:1;" d="M 55.011719 59.109375 C 52.472656 59.109375 49.15625 55.847656 46.941406 51.171875 C 44.28125 45.554688 44.246094 40.386719 46.859375 39.148438 C 47.222656 38.976562 47.621094 38.890625 48.042969 38.890625 C 50.578125 38.890625 53.898438 42.152344 56.113281 46.828125 C 57.316406 49.367188 58.027344 51.964844 58.113281 54.148438 C 58.210938 56.550781 57.53125 58.21875 56.195312 58.851562 C 55.835938 59.023438 55.433594 59.109375 55.011719 59.109375 Z M 55.011719 59.109375 "/>
<path style=" stroke:none;fill-rule:nonzero;fill:rgb(12.941177%,12.941177%,12.941177%);fill-opacity:1;" d="M 48.042969 39.636719 C 50.230469 39.636719 53.328125 42.703125 55.4375 47.144531 C 57.835938 52.210938 58.03125 57.148438 55.875 58.171875 C 55.609375 58.296875 55.316406 58.359375 55.011719 58.359375 C 52.824219 58.359375 49.722656 55.292969 47.617188 50.851562 C 45.21875 45.785156 45.023438 40.847656 47.179688 39.824219 C 47.449219 39.699219 47.738281 39.636719 48.042969 39.636719 M 48.046875 38.136719 C 47.511719 38.136719 47.003906 38.25 46.539062 38.46875 C 43.085938 40.109375 43.785156 46.261719 46.265625 51.492188 C 48.238281 55.65625 51.710938 59.859375 55.011719 59.859375 C 55.546875 59.859375 56.054688 59.746094 56.519531 59.527344 C 59.972656 57.890625 59.273438 51.738281 56.792969 46.503906 C 54.816406 42.339844 51.347656 38.136719 48.046875 38.136719 Z M 48.046875 38.136719 "/>
<path style=" stroke:none;fill-rule:nonzero;fill:rgb(12.941177%,12.941177%,12.941177%);fill-opacity:1;" d="M 50.207031 48.636719 C 48.957031 49.160156 48.832031 51.703125 49.929688 54.3125 C 51.023438 56.925781 52.925781 58.617188 54.175781 58.09375 C 55.421875 57.570312 55.546875 55.027344 54.449219 52.414062 C 53.355469 49.804688 51.453125 48.113281 50.207031 48.636719 Z M 50.207031 48.636719 "/>
<path style=" stroke:none;fill-rule:nonzero;fill:rgb(100%,100%,100%);fill-opacity:1;" d="M 51.054688 50.339844 C 50.53125 50.492188 50.296875 51.269531 50.535156 52.074219 C 50.769531 52.875 51.386719 53.40625 51.910156 53.25 C 52.429688 53.097656 52.664062 52.320312 52.425781 51.515625 C 52.191406 50.710938 51.574219 50.183594 51.054688 50.339844 Z M 51.054688 50.339844 "/>
<path style=" stroke:none;fill-rule:nonzero;fill:rgb(100%,75.686276%,2.745098%);fill-opacity:1;" d="M 53.320312 88.457031 C 41.128906 85.234375 37.023438 79.871094 35.046875 77.292969 C 34.800781 76.96875 34.507812 76.585938 34.257812 76.300781 C 34.378906 76.570312 34.546875 76.875 34.722656 77.140625 L 35.875 78.878906 L 33.882812 78.273438 C 33.554688 78.175781 25.835938 75.808594 22.890625 73.265625 L 22.738281 73.136719 L 22.671875 72.945312 C 21.65625 70.054688 22.269531 66.402344 24.226562 63.640625 C 25.773438 61.457031 28.828125 58.851562 34.578125 58.851562 C 35.761719 58.851562 37.019531 58.96875 38.320312 59.195312 C 39.097656 58.988281 39.921875 58.648438 40.789062 58.289062 C 42.414062 57.613281 44.253906 56.851562 46.234375 56.851562 C 47.402344 56.949219 48.53125 56.996094 49.652344 56.996094 C 66.09375 56.996094 79.242188 46.601562 79.375 46.496094 L 81.765625 44.578125 L 80.527344 47.386719 C 80.3125 47.875 75.152344 59.410156 64.757812 67.542969 C 62.445312 69.351562 58.492188 69.996094 56.953125 70.183594 C 56.339844 72.050781 54.632812 78.035156 54.261719 87.761719 L 54.222656 88.699219 Z M 53.320312 88.457031 "/>
<path style=" stroke:none;fill-rule:nonzero;fill:rgb(12.941177%,12.941177%,12.941177%);fill-opacity:1;" d="M 79.84375 47.085938 C 79.84375 47.085938 74.660156 58.84375 64.292969 66.953125 C 62.261719 68.542969 58.582031 69.28125 56.394531 69.488281 C 55.746094 71.308594 53.902344 77.46875 53.515625 87.734375 C 36.882812 83.335938 35.824219 75.15625 33.785156 75.15625 C 33.738281 75.15625 33.695312 75.160156 33.644531 75.167969 C 32.632812 75.347656 34.101562 77.554688 34.101562 77.554688 C 34.101562 77.554688 26.238281 75.167969 23.378906 72.699219 C 21.75 68.050781 24.5625 59.605469 34.578125 59.605469 C 35.738281 59.605469 36.992188 59.71875 38.347656 59.964844 C 40.71875 59.390625 43.332031 57.605469 46.234375 57.605469 C 47.386719 57.703125 48.53125 57.753906 49.652344 57.753906 C 66.542969 57.75 79.84375 47.085938 79.84375 47.085938 M 83.679688 42.09375 L 78.902344 45.914062 C 78.773438 46.019531 65.792969 56.253906 49.648438 56.253906 C 48.546875 56.253906 47.441406 56.203125 46.363281 56.109375 L 46.296875 56.105469 L 46.230469 56.105469 C 44.101562 56.105469 42.1875 56.898438 40.496094 57.597656 C 39.710938 57.925781 38.964844 58.234375 38.277344 58.429688 C 36.992188 58.214844 35.75 58.105469 34.574219 58.105469 C 29.839844 58.105469 25.945312 59.914062 23.609375 63.207031 C 21.515625 66.160156 20.867188 70.082031 21.960938 73.195312 L 22.09375 73.574219 L 22.394531 73.835938 C 25.457031 76.480469 33.324219 78.890625 33.65625 78.992188 L 36.042969 79.714844 C 38.574219 82.578125 43.265625 86.574219 53.125 89.1875 L 54.9375 89.664062 L 55.011719 87.792969 C 55.351562 78.820312 56.828125 73.09375 57.519531 70.867188 C 59.355469 70.605469 62.972656 69.890625 65.214844 68.136719 C 75.757812 59.890625 80.996094 48.1875 81.214844 47.691406 Z M 83.679688 42.09375 "/>
<path style=" stroke:none;fill-rule:nonzero;fill:rgb(100%,100%,100%);fill-opacity:1;" d="M 46.753906 65.015625 C 43.402344 65.015625 39.054688 61.894531 35.9375 57.257812 C 34.007812 54.382812 32.761719 51.285156 32.429688 48.53125 C 32.074219 45.601562 32.796875 43.371094 34.460938 42.253906 C 35.175781 41.773438 36.023438 41.527344 36.976562 41.527344 C 40.328125 41.527344 44.675781 44.644531 47.792969 49.285156 C 51.949219 55.460938 52.597656 62.050781 49.273438 64.289062 C 48.554688 64.769531 47.710938 65.015625 46.753906 65.015625 Z M 46.753906 65.015625 "/>
<path style=" stroke:none;fill-rule:nonzero;fill:rgb(12.941177%,12.941177%,12.941177%);fill-opacity:1;" d="M 36.976562 42.277344 C 40.003906 42.277344 44.109375 45.144531 47.171875 49.703125 C 51.03125 55.445312 51.785156 61.695312 48.855469 63.664062 C 48.253906 64.070312 47.539062 64.265625 46.753906 64.265625 C 43.726562 64.265625 39.625 61.398438 36.558594 56.839844 C 32.699219 51.097656 31.949219 44.847656 34.878906 42.875 C 35.480469 42.46875 36.195312 42.277344 36.976562 42.277344 M 36.976562 40.777344 C 35.871094 40.777344 34.882812 41.066406 34.042969 41.628906 C 32.132812 42.914062 31.296875 45.394531 31.683594 48.621094 C 32.03125 51.488281 33.320312 54.707031 35.316406 57.675781 C 38.621094 62.589844 43.109375 65.765625 46.757812 65.765625 C 47.863281 65.765625 48.851562 65.476562 49.691406 64.910156 C 51.601562 63.628906 52.4375 61.144531 52.050781 57.921875 C 51.703125 55.050781 50.414062 51.835938 48.417969 48.867188 C 45.113281 43.953125 40.625 40.777344 36.976562 40.777344 Z M 36.976562 40.777344 "/>
<path style=" stroke:none;fill-rule:nonzero;fill:rgb(12.941177%,12.941177%,12.941177%);fill-opacity:1;" d="M 37.644531 54.996094 C 36.511719 55.957031 37.230469 58.65625 39.246094 61.019531 C 41.261719 63.382812 43.808594 64.519531 44.941406 63.554688 C 46.070312 62.59375 45.351562 59.894531 43.335938 57.53125 C 41.320312 55.167969 38.773438 54.03125 37.644531 54.996094 Z M 37.644531 54.996094 "/>
<path style=" stroke:none;fill-rule:nonzero;fill:rgb(100%,100%,100%);fill-opacity:1;" d="M 38.714844 57.671875 C 38.132812 58.066406 38.179688 59.152344 38.816406 60.097656 C 39.457031 61.042969 40.445312 61.492188 41.027344 61.101562 C 41.609375 60.707031 41.5625 59.621094 40.921875 58.675781 C 40.285156 57.730469 39.292969 57.28125 38.714844 57.671875 Z M 38.714844 57.671875 "/>
<path style=" stroke:none;fill-rule:nonzero;fill:rgb(12.941177%,12.941177%,12.941177%);fill-opacity:1;" d="M 29.949219 47.207031 C 29.175781 47.207031 27.902344 43.753906 27.902344 41.496094 C 27.902344 39.238281 27.835938 35.433594 31.007812 35.433594 C 34.179688 35.433594 37.425781 36.703125 37.425781 38.042969 C 37.425781 39.382812 36.507812 38.957031 36.085938 38.957031 C 35.660156 38.957031 33.96875 38.042969 32.558594 38.042969 C 31.148438 38.042969 30.160156 40.578125 30.160156 42.203125 C 30.160156 43.824219 30.867188 47.207031 29.949219 47.207031 Z M 29.949219 47.207031 "/>
<path style=" stroke:none;fill-rule:nonzero;fill:rgb(12.941177%,12.941177%,12.941177%);fill-opacity:1;" d="M 43.207031 40.933594 C 42.785156 40.933594 42.714844 39.238281 42.855469 37.96875 C 42.996094 36.699219 44.054688 35.433594 45.183594 35.433594 C 46.3125 35.433594 47.792969 36.984375 48.710938 37.898438 C 49.625 38.816406 47.652344 37.800781 46.171875 37.757812 C 43.703125 37.6875 44.335938 40.933594 43.207031 40.933594 Z M 43.207031 40.933594 "/>
<path style=" stroke:none;fill-rule:nonzero;fill:rgb(12.941177%,12.941177%,12.941177%);fill-opacity:1;" d="M 51.457031 85.007812 C 51.457031 85.007812 44.757812 82.394531 41.515625 78.589844 C 38.140625 74.628906 34.8125 68.785156 32.769531 68.785156 C 30.726562 68.785156 28.890625 71.113281 28.890625 71.113281 C 28.890625 71.113281 28.746094 68.234375 30.585938 66.953125 C 32.910156 65.332031 38.410156 65.824219 38.410156 65.824219 C 38.410156 65.824219 35.097656 66.742188 35.097656 67.519531 C 35.097656 68.292969 42.078125 69.847656 47.4375 69.847656 C 52.796875 69.847656 53.996094 69.632812 53.996094 69.632812 C 53.996094 69.632812 51.386719 76.261719 51.457031 85.007812 Z M 51.457031 85.007812 "/>
<path style=" stroke:none;fill-rule:nonzero;fill:rgb(83.529413%,0%,0%);fill-opacity:1;" d="M 37.824219 69.460938 C 39.066406 69.8125 40.09375 70.59375 41.648438 72.644531 C 43.207031 74.699219 43.667969 75.761719 44.023438 75.726562 C 44.375 75.691406 43.066406 73.070312 42.886719 72.257812 C 42.710938 71.441406 43.136719 70.734375 44.128906 70.734375 C 45.121094 70.734375 47.421875 71.652344 47.421875 75.300781 C 47.421875 78.949219 46.679688 80.753906 46.679688 80.753906 C 46.679688 80.753906 43.382812 79.445312 39.984375 75.195312 C 38.964844 73.917969 38.144531 72.503906 37.402344 71.371094 C 37.042969 70.828125 36.464844 69.070312 37.824219 69.460938 Z M 37.824219 69.460938 "/>
</g>
</svg>
